<svg display="none" xmlns="http://www.w3.org/2000/svg">

	<symbol id="facebook" viewBox="0 0 24 24">
		<g>
			<path d="m15.997 3.985h2.191v-3.816c-.378-.052-1.678-.169-3.192-.169-3.159 0-5.323 1.987-5.323 5.639v3.361h-3.486v4.266h3.486v10.734h4.274v-10.733h3.345l.531-4.266h-3.877v-2.939c.001-1.233.333-2.077 2.051-2.077z"/>
		</g>
	</symbol>

	<symbol id="twitter"  viewBox="0 0 512 512">
		<g>
			<path d="M512,97.248c-19.04,8.352-39.328,13.888-60.48,16.576c21.76-12.992,38.368-33.408,46.176-58.016
			c-20.288,12.096-42.688,20.64-66.56,25.408C411.872,60.704,384.416,48,354.464,48c-58.112,0-104.896,47.168-104.896,104.992
			c0,8.32,0.704,16.32,2.432,23.936c-87.264-4.256-164.48-46.08-216.352-109.792c-9.056,15.712-14.368,33.696-14.368,53.056
			c0,36.352,18.72,68.576,46.624,87.232c-16.864-0.32-33.408-5.216-47.424-12.928c0,0.32,0,0.736,0,1.152
			c0,51.008,36.384,93.376,84.096,103.136c-8.544,2.336-17.856,3.456-27.52,3.456c-6.72,0-13.504-0.384-19.872-1.792
			c13.6,41.568,52.192,72.128,98.08,73.12c-35.712,27.936-81.056,44.768-130.144,44.768c-8.608,0-16.864-0.384-25.12-1.44
			C46.496,446.88,101.6,464,161.024,464c193.152,0,298.752-160,298.752-298.688c0-4.64-0.16-9.12-0.384-13.568
			C480.224,136.96,497.728,118.496,512,97.248z"/>
		</g>
	</symbol>

	<symbol id="in" viewBox="0 0 552.77 552.77">
		<g>
		<path d="M17.95,528.854h71.861c9.914,0,17.95-8.037,17.95-17.951V196.8c0-9.915-8.036-17.95-17.95-17.95H17.95
			C8.035,178.85,0,186.885,0,196.8v314.103C0,520.816,8.035,528.854,17.95,528.854z"/>
		<path d="M17.95,123.629h71.861c9.914,0,17.95-8.036,17.95-17.95V41.866c0-9.914-8.036-17.95-17.95-17.95H17.95
			C8.035,23.916,0,31.952,0,41.866v63.813C0,115.593,8.035,123.629,17.95,123.629z"/>
		<path d="M525.732,215.282c-10.098-13.292-24.988-24.223-44.676-32.791c-19.688-8.562-41.42-12.846-65.197-12.846
			c-48.268,0-89.168,18.421-122.699,55.27c-6.672,7.332-11.523,5.729-11.523-4.186V196.8c0-9.915-8.037-17.95-17.951-17.95h-64.192
			c-9.915,0-17.95,8.035-17.95,17.95v314.103c0,9.914,8.036,17.951,17.95,17.951h71.861c9.915,0,17.95-8.037,17.95-17.951V401.666
			c0-45.508,2.748-76.701,8.244-93.574c5.494-16.873,15.66-30.422,30.488-40.649c14.83-10.227,31.574-15.343,50.24-15.343
			c14.572,0,27.037,3.58,37.393,10.741c10.355,7.16,17.834,17.19,22.436,30.104c4.604,12.912,6.904,41.354,6.904,85.33v132.627
			c0,9.914,8.035,17.951,17.949,17.951h71.861c9.914,0,17.949-8.037,17.949-17.951V333.02c0-31.445-1.982-55.607-5.941-72.48
			S535.836,228.581,525.732,215.282z"/>
	</g>
	</symbol>

	<symbol id="pintarest" viewBox="0 0 438.529 438.529">
		<g>
			<path d="M409.141,109.203c-19.608-33.592-46.205-60.189-79.798-79.796C295.751,9.801,259.065,0,219.281,0
			C179.5,0,142.812,9.801,109.22,29.407c-33.597,19.604-60.194,46.201-79.8,79.796C9.809,142.8,0.008,179.485,0.008,219.267
			c0,44.35,12.085,84.611,36.258,120.767c24.172,36.172,55.863,62.912,95.073,80.232c-0.762-20.365,0.476-37.209,3.709-50.532
			l28.267-119.348c-4.76-9.329-7.139-20.93-7.139-34.831c0-16.175,4.089-29.689,12.275-40.541
			c8.186-10.85,18.177-16.274,29.979-16.274c9.514,0,16.841,3.14,21.982,9.42c5.142,6.283,7.705,14.181,7.705,23.7
			c0,5.896-1.099,13.084-3.289,21.554c-2.188,8.471-5.041,18.273-8.562,29.409c-3.521,11.132-6.045,20.036-7.566,26.692
			c-2.663,11.608-0.476,21.553,6.567,29.838c7.042,8.278,16.372,12.423,27.983,12.423c20.365,0,37.065-11.324,50.107-33.972
			c13.038-22.655,19.554-50.159,19.554-82.514c0-24.938-8.042-45.21-24.129-60.813c-16.085-15.609-38.496-23.417-67.239-23.417
			c-32.161,0-58.192,10.327-78.082,30.978c-19.891,20.654-29.836,45.352-29.836,74.091c0,17.132,4.854,31.505,14.56,43.112
			c3.235,3.806,4.283,7.898,3.14,12.279c-0.381,1.143-1.141,3.997-2.284,8.562c-1.138,4.565-1.903,7.522-2.281,8.851
			c-1.521,6.091-5.14,7.994-10.85,5.708c-14.654-6.085-25.791-16.652-33.402-31.689c-7.614-15.037-11.422-32.456-11.422-52.246
			c0-12.753,2.047-25.505,6.14-38.256c4.089-12.756,10.468-25.078,19.126-36.975c8.663-11.9,19.036-22.417,31.123-31.549
			c12.082-9.135,26.787-16.462,44.108-21.982s35.972-8.28,55.959-8.28c27.032,0,51.295,5.995,72.8,17.986
			c21.512,11.992,37.925,27.502,49.252,46.537c11.327,19.036,16.987,39.403,16.987,61.101c0,28.549-4.948,54.243-14.842,77.086
			c-9.896,22.839-23.887,40.778-41.973,53.813c-18.083,13.042-38.637,19.561-61.675,19.561c-11.607,0-22.456-2.714-32.548-8.135
			c-10.085-5.427-17.034-11.847-20.839-19.273c-8.566,33.685-13.706,53.77-15.42,60.24c-3.616,13.508-11.038,29.119-22.27,46.819
			c20.367,6.091,41.112,9.13,62.24,9.13c39.781,0,76.47-9.801,110.062-29.41c33.595-19.602,60.192-46.199,79.794-79.791
			c19.606-33.599,29.407-70.287,29.407-110.065C438.527,179.485,428.74,142.795,409.141,109.203z"/>
		</g>
	</symbol>

	<symbol id="googleplus" viewBox="0 0 475.092 475.092">
		<g>
		<path d="M273.372,302.498c-5.041-6.762-10.608-13.045-16.7-18.842c-6.091-5.804-12.183-11.088-18.271-15.845
			c-6.092-4.757-11.659-9.329-16.702-13.709c-5.042-4.374-9.135-8.945-12.275-13.702c-3.14-4.757-4.711-9.61-4.711-14.558
			c0-6.855,2.19-13.278,6.567-19.274c4.377-5.996,9.707-11.799,15.986-17.417c6.28-5.617,12.559-11.753,18.844-18.415
			c6.276-6.665,11.604-15.465,15.985-26.412c4.373-10.944,6.563-23.458,6.563-37.542c0-16.75-3.713-32.835-11.136-48.25
			c-7.423-15.418-17.89-27.412-31.405-35.976h38.54L303.2,0H178.441c-17.699,0-35.498,1.906-53.384,5.72
			c-26.453,5.9-48.723,19.368-66.806,40.397C40.171,67.15,31.129,90.99,31.129,117.637c0,28.171,10.138,51.583,30.406,70.233
			c20.269,18.649,44.585,27.978,72.945,27.978c5.71,0,12.371-0.478,19.985-1.427c-0.381,1.521-1.043,3.567-1.997,6.136
			s-1.715,4.62-2.286,6.14c-0.57,1.521-1.047,3.375-1.425,5.566c-0.382,2.19-0.571,4.428-0.571,6.71
			c0,12.563,6.086,26.744,18.271,42.541c-14.465,0.387-28.737,1.67-42.825,3.86c-14.084,2.19-28.833,5.616-44.252,10.28
			c-15.417,4.661-29.217,11.42-41.396,20.27c-12.182,8.854-21.317,19.366-27.408,31.549C3.533,361.559,0.01,374.405,0.01,386.017
			c0,12.751,2.857,24.314,8.565,34.69c5.708,10.369,13.035,18.842,21.982,25.406c8.945,6.57,19.273,12.083,30.978,16.562
			c11.704,4.47,23.315,7.659,34.829,9.562c11.516,1.903,22.888,2.854,34.119,2.854c51.007,0,90.981-12.464,119.909-37.397
			c26.648-23.223,39.971-50.062,39.971-80.517c0-10.855-1.57-20.984-4.712-30.409C282.51,317.337,278.42,309.254,273.372,302.498z
			 M163.311,198.722c-9.707,0-18.937-2.475-27.694-7.426c-8.757-4.95-16.18-11.374-22.27-19.273
			c-6.088-7.898-11.418-16.796-15.987-26.695c-4.567-9.896-7.944-19.792-10.135-29.692c-2.19-9.895-3.284-19.318-3.284-28.265
			c0-18.271,4.854-33.974,14.562-47.108c9.705-13.134,23.411-19.701,41.112-19.701c12.563,0,23.935,3.899,34.118,11.704
			c10.183,7.804,18.177,17.701,23.984,29.692c5.802,11.991,10.277,24.407,13.417,37.257c3.14,12.847,4.711,24.983,4.711,36.403
			c0,19.036-4.139,34.317-12.419,45.833C195.144,192.964,181.775,198.722,163.311,198.722z M242.251,413.123
			c-5.23,8.949-12.319,15.94-21.267,20.981c-8.946,5.048-18.509,8.758-28.693,11.14c-10.183,2.385-20.889,3.572-32.12,3.572
			c-12.182,0-24.27-1.431-36.258-4.284c-11.99-2.851-23.459-7.187-34.403-12.991c-10.944-5.8-19.795-13.798-26.551-23.982
			c-6.757-10.184-10.135-21.744-10.135-34.69c0-11.419,2.568-21.601,7.708-30.55c5.142-8.945,11.709-16.084,19.702-21.408
			c7.994-5.332,17.319-9.713,27.979-13.131c10.66-3.433,20.937-5.808,30.833-7.139c9.895-1.335,19.985-1.995,30.262-1.995
			c6.283,0,11.043,0.191,14.277,0.567c1.143,0.767,4.043,2.759,8.708,5.996s7.804,5.428,9.423,6.57
			c1.615,1.137,4.567,3.326,8.85,6.563c4.281,3.237,7.327,5.661,9.135,7.279c1.803,1.618,4.421,4.045,7.849,7.279
			c3.424,3.237,5.948,6.043,7.566,8.422c1.615,2.378,3.616,5.28,5.996,8.702c2.38,3.433,4.043,6.715,4.998,9.855
			c0.948,3.142,1.854,6.567,2.707,10.277c0.855,3.72,1.283,7.569,1.283,11.57C250.105,393.713,247.487,404.182,242.251,413.123z"/>
		<polygon points="401.998,73.089 401.998,0 365.449,0 365.449,73.089 292.358,73.089 292.358,109.636 365.449,109.636 
			365.449,182.725 401.998,182.725 401.998,109.636 475.081,109.636 475.081,73.089 		"/>
	    </g>
	</symbol>

	<symbol id="dribbble" viewBox="0 0 24 24">
		<g>
			<path d="m16.354 23.17c.02-.006.039-.014.059-.021 12.215-4.853 8.836-23.149-4.413-23.149-6.649 0-12 5.42-12 12 0 8.327 8.434 14.269 16.354 11.17zm-11.073-3.111c.852-1.432 3.609-5.472 8.315-6.866.984 2.509 1.674 5.436 1.742 8.755-3.566 1.199-7.327.392-10.057-1.889zm11.532 1.263c-.131-3.189-.782-6.017-1.71-8.467 2.082-.325 4.492-.108 7.225.987-.581 3.261-2.666 6.002-5.515 7.48zm5.672-9.031c-3.01-1.131-5.663-1.272-7.959-.834-.355-.8-.728-1.569-1.123-2.277 3.523-1.407 5.605-3.122 6.537-4.03 1.645 1.904 2.622 4.369 2.545 7.141zm-3.61-8.209c-.848.807-2.845 2.437-6.26 3.77-1.674-2.648-3.464-4.516-4.598-5.562 3.628-1.494 7.812-.856 10.858 1.792zm-12.292-1.059c.856.753 2.735 2.561 4.548 5.357-2.49.802-5.612 1.391-9.409 1.474.604-2.894 2.408-5.346 4.861-6.831zm-5.051 8.337c4.25-.069 7.69-.74 10.409-1.648.376.659.733 1.377 1.076 2.123-4.735 1.508-7.694 5.401-8.827 7.159-1.828-2.04-2.836-4.702-2.658-7.634z"/>
		</g>
	</symbol>

<symbol id="Earth" viewBox="0 0 31.416 31.416">
	<g>
		<path d="M28.755,6.968l-0.47,0.149L25.782,7.34l-0.707,1.129l-0.513-0.163L22.57,6.51l-0.289-0.934L21.894,4.58l-1.252-1.123
			l-1.477-0.289l-0.034,0.676l1.447,1.412l0.708,0.834L20.49,6.506l-0.648-0.191L18.871,5.91l0.033-0.783l-1.274-0.524l-0.423,1.841
			l-1.284,0.291l0.127,1.027l1.673,0.322l0.289-1.641l1.381,0.204l0.642,0.376h1.03l0.705,1.412l1.869,1.896l-0.137,0.737
			l-1.507-0.192l-2.604,1.315l-1.875,2.249l-0.244,0.996h-0.673l-1.254-0.578l-1.218,0.578l0.303,1.285l0.53-0.611l0.932-0.029
			l-0.065,1.154l0.772,0.226l0.771,0.866l1.259-0.354l1.438,0.227l1.67,0.449l0.834,0.098l1.414,1.605l2.729,1.605l-1.765,3.372
			l-1.863,0.866l-0.707,1.927l-2.696,1.8l-0.287,1.038c6.892-1.66,12.019-7.851,12.019-15.253
			C31.413,12.474,30.433,9.465,28.755,6.968z"/>
		<path d="M17.515,23.917l-1.144-2.121l1.05-2.188l-1.05-0.314l-1.179-1.184l-2.612-0.586l-0.867-1.814v1.077h-0.382l-2.251-3.052
			v-2.507L7.43,8.545L4.81,9.012H3.045L2.157,8.43L3.29,7.532L2.16,7.793c-1.362,2.326-2.156,5.025-2.156,7.916
			c0,8.673,7.031,15.707,15.705,15.707c0.668,0,1.323-0.059,1.971-0.137l-0.164-1.903c0,0,0.721-2.826,0.721-2.922
			C18.236,26.357,17.515,23.917,17.515,23.917z"/>
		<path d="M5.84,5.065l2.79-0.389l1.286-0.705l1.447,0.417l2.312-0.128l0.792-1.245l1.155,0.19l2.805-0.263L19.2,2.09l1.09-0.728
			l1.542,0.232l0.562-0.085C20.363,0.553,18.103,0,15.708,0C10.833,0,6.474,2.222,3.596,5.711h0.008L5.84,5.065z M16.372,1.562
			l1.604-0.883l1.03,0.595l-1.491,1.135l-1.424,0.143l-0.641-0.416L16.372,1.562z M11.621,1.691l0.708,0.295l0.927-0.295
			l0.505,0.875l-2.14,0.562l-1.029-0.602C10.591,2.526,11.598,1.878,11.621,1.691z"/>
	</g>
</symbol>





			</svg>